<svg height="16px" width="16px" version="1.1" id="Layer_1" xmlns="http://www.w3.org/2000/svg" xmlns:xlink="http://www.w3.org/1999/xlink" viewBox="0 0 512 512" xml:space="preserve" fill="#000000"><g id="SVGRepo_bgCarrier" stroke-width="0"></g><g id="SVGRepo_tracerCarrier" stroke-linecap="round" stroke-linejoin="round"></g><g id="SVGRepo_iconCarrier"> <polygon style="fill:#C3F6F9;" points="256,491.11 503.209,149.938 408.784,20.89 103.217,20.89 8.791,149.938 "></polygon> <g> <polygon style="fill:#D1F9F7;" points="103.218,20.89 173.593,149.943 8.79,149.943 "></polygon> <polygon style="fill:#D1F9F7;" points="408.784,20.89 338.397,149.943 255.995,20.89 "></polygon> <polygon style="fill:#D1F9F7;" points="338.397,149.943 255.995,491.107 173.593,149.943 "></polygon> </g> <g> <polygon style="fill:#9EE7E7;" points="408.784,20.89 503.2,149.943 338.397,149.943 "></polygon> <polygon style="fill:#9EE7E7;" points="255.995,20.89 338.397,149.943 173.593,149.943 "></polygon> <polygon style="fill:#9EE7E7;" points="173.593,149.943 255.995,491.107 8.79,149.943 "></polygon> </g> <path d="M510.304,144.747L415.879,15.699c-1.656-2.263-4.291-3.6-7.095-3.6H103.217c-2.804,0-5.439,1.337-7.095,3.6L1.696,144.747 c-2.253,3.079-2.262,7.259-0.025,10.349l247.21,341.172c1.654,2.282,4.301,3.634,7.118,3.634s5.466-1.35,7.118-3.634l180.55-249.176 c2.849-3.931,1.972-9.428-1.961-12.277c-3.933-2.849-9.428-1.972-12.277,1.961L274.994,449.914l70.33-291.185h140.659 l-34.023,46.954c-2.848,3.931-1.972,9.428,1.961,12.277c3.931,2.848,9.428,1.972,12.277-1.961l44.129-60.902 C512.566,152.006,512.557,147.826,510.304,144.747z M215.625,361.393l21.381,88.521L26.017,158.729h47.278 c4.855,0,8.791-3.936,8.791-8.791s-3.936-8.791-8.791-8.791H26.117l76.015-103.886l56.658,103.886h-55.604 c-4.855,0-8.791,3.936-8.791,8.791s3.936,8.791,8.791,8.791h63.491l41.132,170.298c0.973,4.026,4.571,6.729,8.538,6.729 c0.683,0,1.378-0.081,2.071-0.247c4.719-1.14,7.621-5.89,6.482-10.609l-40.135-166.17h142.472l-71.235,294.936l-23.283-96.402 c-1.139-4.719-5.888-7.619-10.609-6.482C217.388,351.923,214.486,356.672,215.625,361.393z M272.044,29.681h121.932L337.808,132.67 L272.044,29.681z M322.359,141.147H189.641L256,37.225L322.359,141.147z M174.192,132.67L118.024,29.681h121.931L174.192,132.67z M409.869,37.26l76.015,103.886H353.211L409.869,37.26z"></path> </g></svg>
